<svg xmlns="http://www.w3.org/2000/svg" viewBox="0 0 30 25" width="30" height="25">
	<style>
		tspan { white-space:pre }
		.shp0 { fill: #000000 } 
	</style>
	<g id="side menu">
		<g id="dashboard">
			<path id="dashboard" class="shp0" d="M19.39 10.03L17.2 11.38C16.43 11.84 15.61 12.26 14.84 12.63C14.61 12.72 14.34 12.86 14.06 13C13.11 13.51 12.61 14.58 12.84 15.65C13.02 16.48 13.7 17.18 14.52 17.36C14.7 17.41 14.88 17.41 15.07 17.41C15.93 17.41 16.7 16.9 17.11 16.11C17.2 15.88 17.34 15.6 17.48 15.32C17.88 14.53 18.25 13.7 18.7 12.91L20.02 10.68C20.11 10.5 20.07 10.31 19.93 10.12C19.79 9.94 19.57 9.94 19.39 10.03ZM17.93 12.4C17.43 13.23 17.02 14.07 16.66 14.9C16.57 15.18 16.43 15.41 16.29 15.69C16.02 16.3 15.38 16.57 14.75 16.43C14.25 16.34 13.84 15.92 13.75 15.41C13.61 14.76 13.88 14.11 14.47 13.84C14.7 13.7 14.97 13.6 15.25 13.46C16.07 13.05 16.93 12.63 17.7 12.17L18.29 11.79L17.93 12.4ZM27.73 9.94C27.73 9.91 27.72 9.88 27.71 9.85C27.7 9.82 27.68 9.79 27.66 9.76C26.98 8.1 25.99 6.59 24.77 5.33C24.75 5.3 24.73 5.28 24.71 5.25C24.68 5.23 24.66 5.21 24.63 5.19C22.17 2.71 18.78 1.17 15.07 1.17C13.28 1.17 11.58 1.52 10.02 2.16C9.99 2.17 9.96 2.18 9.93 2.19C9.9 2.2 9.87 2.22 9.84 2.23C8.21 2.93 6.74 3.94 5.5 5.19C5.47 5.21 5.45 5.23 5.42 5.25C5.4 5.28 5.38 5.3 5.36 5.33C2.93 7.84 1.42 11.3 1.42 15.09C1.42 18.24 2.42 21.26 4.38 23.72C4.47 23.86 4.61 23.91 4.74 23.91L25.39 23.91C25.52 23.91 25.66 23.86 25.75 23.72C27.71 21.26 28.71 18.24 28.71 15.09C28.71 13.27 28.36 11.53 27.73 9.94ZM25.21 22.98L4.97 22.98C4.35 22.17 3.84 21.3 3.44 20.39L4.7 19.87C4.92 19.78 5.01 19.5 4.92 19.27C4.83 19.03 4.56 18.94 4.33 19.03L3.1 19.54C2.64 18.27 2.39 16.93 2.34 15.55L5.52 15.55C5.79 15.55 5.97 15.37 5.97 15.09C5.97 14.81 5.79 14.62 5.52 14.62L2.34 14.62C2.39 13.16 2.68 11.76 3.17 10.45L4.42 11.01C4.47 11.05 4.56 11.05 4.61 11.05C4.79 11.05 4.92 10.96 5.01 10.77C5.11 10.54 5.01 10.26 4.79 10.17L3.53 9.61C4.1 8.37 4.85 7.24 5.76 6.24L6.7 7.2C6.79 7.29 6.88 7.34 7.02 7.34C7.15 7.34 7.24 7.29 7.33 7.2C7.52 7.01 7.52 6.74 7.33 6.55L6.4 5.59C7.42 4.62 8.59 3.82 9.87 3.23L10.38 4.51C10.43 4.69 10.61 4.79 10.79 4.79C10.84 4.79 10.88 4.79 10.97 4.74C11.2 4.65 11.29 4.37 11.2 4.14L10.7 2.89C11.93 2.43 13.24 2.16 14.61 2.11L14.61 5.34C14.61 5.62 14.79 5.81 15.07 5.81C15.34 5.81 15.52 5.62 15.52 5.34L15.52 2.11C16.95 2.16 18.33 2.45 19.61 2.96L19.07 4.23C18.98 4.46 19.07 4.74 19.29 4.83C19.34 4.88 19.43 4.88 19.48 4.88C19.66 4.88 19.84 4.74 19.89 4.6L20.43 3.31C21.65 3.9 22.76 4.67 23.73 5.59L22.8 6.55C22.61 6.74 22.61 7.01 22.8 7.2C22.89 7.29 22.98 7.34 23.11 7.34C23.21 7.34 23.34 7.29 23.43 7.2L24.37 6.24C25.32 7.28 26.11 8.48 26.68 9.79L25.43 10.31C25.21 10.4 25.12 10.68 25.21 10.91C25.25 11.1 25.43 11.19 25.62 11.19C25.66 11.19 25.71 11.14 25.8 11.14L27.02 10.64C27.47 11.89 27.74 13.23 27.79 14.62L24.61 14.62C24.34 14.62 24.16 14.81 24.16 15.09C24.16 15.37 24.34 15.55 24.61 15.55L27.79 15.55C27.74 17 27.46 18.41 26.97 19.73L25.71 19.17C25.48 19.08 25.21 19.17 25.12 19.4C25.02 19.64 25.12 19.91 25.34 20.01L26.62 20.57C26.24 21.42 25.76 22.22 25.21 22.98Z" />
		</g>
	</g>
</svg>