<svg xmlns="http://www.w3.org/2000/svg" viewBox="0 0 28 28" width="28" height="28">
	<style>
		tspan { white-space:pre }
		.shp0 { opacity: 0.4;fill: #000000 } 
	</style>
	<g id="side menu">
		<g id="manage coupon">
			<path id="manage coupon" class="shp0" d="M12.93 17.01C12.77 17.01 12.63 16.95 12.53 16.84L10.25 14.57C10.15 14.47 10.09 14.33 10.09 14.17C10.09 13.85 10.34 13.6 10.65 13.6C10.81 13.6 10.95 13.66 11.06 13.77L13.33 16.04C13.43 16.14 13.5 16.29 13.5 16.44C13.5 16.76 13.24 17.01 12.93 17.01ZM21.45 5.07C22.4 5.07 23.16 5.84 23.16 6.78C23.16 7.72 22.4 8.48 21.45 8.48C20.51 8.48 19.75 7.72 19.75 6.78C19.75 5.84 20.51 5.07 21.45 5.07ZM21.45 7.35C21.77 7.35 22.02 7.09 22.02 6.78C22.02 6.47 21.77 6.21 21.45 6.21C21.14 6.21 20.89 6.47 20.89 6.78C20.89 7.09 21.14 7.35 21.45 7.35ZM13.5 22.13C13.34 22.13 13.2 22.06 13.09 21.96L9.68 18.55C9.58 18.45 9.52 18.3 9.52 18.15C9.52 17.83 9.77 17.58 10.09 17.58C10.24 17.58 10.38 17.64 10.49 17.75L13.9 21.16C14 21.26 14.07 21.4 14.07 21.56C14.07 21.87 13.81 22.13 13.5 22.13ZM1.73 14.33L14.23 1.83C14.33 1.73 14.48 1.66 14.63 1.66L24.87 1.66C25.81 1.66 26.57 2.43 26.57 3.37L26.57 13.6C26.57 13.76 26.51 13.9 26.4 14L13.9 26.51C13.8 26.61 13.65 26.67 13.5 26.67C13.34 26.67 13.2 26.61 13.09 26.51L1.73 15.14C1.62 15.04 1.56 14.89 1.56 14.74C1.56 14.58 1.62 14.44 1.73 14.33ZM13.5 25.3L25.43 13.36L25.43 5.07L25.43 4.97L25.43 3.37C25.43 3.05 25.18 2.8 24.87 2.8L23.26 2.8L23.16 2.8L14.87 2.8L2.93 14.74L13.5 25.3ZM16.17 18.88C16.27 18.99 16.34 19.13 16.34 19.28C16.34 19.6 16.08 19.85 15.77 19.85C15.61 19.85 15.47 19.79 15.37 19.69L14.23 18.55C14.13 18.45 14.07 18.3 14.07 18.15C14.07 17.83 14.32 17.58 14.63 17.58C14.79 17.58 14.93 17.64 15.04 17.75L16.17 18.88Z" />
		</g>
	</g>
</svg>