<svg xmlns="http://www.w3.org/2000/svg" viewBox="0 0 28 29" width="28" height="29">
	<style>
		tspan { white-space:pre }
		.shp0 { opacity: 0.4;fill: #000000 } 
	</style>
	<g id="side menu">
		<g id="manage user">
			<path id="manage user" class="shp0" d="M14.07 1.9C6.99 1.9 1.26 7.63 1.26 14.71C1.26 21.78 6.99 27.51 14.07 27.51C21.14 27.51 26.87 21.78 26.87 14.71C26.87 7.63 21.14 1.9 14.07 1.9ZM14.07 26.35C11.17 26.35 8.52 25.28 6.48 23.53C8.05 22.16 8.8 21.78 10.53 21.02C12.54 20.13 13.22 18.56 12.41 16.71C12.26 16.38 12.09 16.07 11.91 15.74C11.29 14.63 10.57 13.36 10.57 10.47C10.57 7.05 12.2 7.02 13.49 7C14.4 6.98 14.85 6.83 15.21 6.7C15.45 6.61 15.59 6.56 15.85 6.56C16.93 6.56 18.12 7.63 18.12 10.61C18.12 13.62 17.67 14.37 16.98 15.59C16.8 15.91 16.61 16.26 16.4 16.69C16 17.5 15.92 18.26 16.16 18.95C16.47 19.83 17.27 20.56 18.69 21.23C19.85 21.78 21.06 22.85 21.71 23.47C19.67 25.25 17 26.35 14.07 26.35ZM22.55 22.66C21.86 21.99 20.52 20.81 19.18 20.18C18.08 19.66 17.45 19.13 17.26 18.57C17.12 18.18 17.18 17.73 17.44 17.2C17.64 16.8 17.83 16.47 18 16.16C18.72 14.86 19.29 13.93 19.29 10.61C19.29 5.65 16.42 5.4 15.85 5.4C15.39 5.4 15.1 5.5 14.82 5.6C14.51 5.71 14.19 5.82 13.47 5.84C12.16 5.86 9.41 5.9 9.41 10.47C9.41 13.66 10.24 15.13 10.89 16.31C11.06 16.61 11.22 16.89 11.34 17.18C11.9 18.44 11.49 19.32 10.06 19.95C8.26 20.75 7.41 21.16 5.64 22.72C3.65 20.63 2.42 17.82 2.42 14.71C2.42 8.28 7.64 3.06 14.07 3.06C20.49 3.06 25.71 8.28 25.71 14.71C25.71 17.78 24.5 20.57 22.55 22.66Z" />
		</g>
	</g>
</svg>