<svg xmlns="http://www.w3.org/2000/svg" viewBox="0 0 28 28" width="28" height="28">
	<style>
		tspan { white-space:pre }
		.shp0 { opacity: 0.4;fill: #000000 } 
	</style>
	<g id="side menu">
		<g id="manage order">
			<path id="manage  order" class="shp0" d="M10.65 18.92L17.48 18.92C18.1 18.92 18.61 18.41 18.61 17.78L18.61 16.64C18.61 16.01 18.1 15.51 17.48 15.51L10.65 15.51C10.03 15.51 9.52 16.01 9.52 16.64L9.52 17.78C9.52 18.41 10.03 18.92 10.65 18.92ZM10.65 16.64L17.48 16.64L17.48 17.78L10.65 17.78L10.65 16.64ZM25.43 8.68L23.16 8.68L23.16 4.14C23.16 3.51 22.65 3 22.02 3L17.48 3L16.34 1.86L6.11 1.86C5.48 1.86 4.97 2.37 4.97 3L4.97 8.68L2.7 8.68C2.07 8.68 1.56 9.19 1.56 9.82L1.56 12.09C1.56 12.72 2.07 13.23 2.7 13.23L3.83 13.23L3.83 25.74C3.83 26.36 4.34 26.87 4.97 26.87L23.16 26.87C23.79 26.87 24.3 26.36 24.3 25.74L24.3 13.23L25.43 13.23C26.06 13.23 26.57 12.72 26.57 12.09L26.57 9.82C26.57 9.19 26.06 8.68 25.43 8.68ZM22.02 4.14L22.02 8.68L19.75 8.68L19.75 5.27L18.61 4.14L22.02 4.14ZM16.34 3.57L18.04 5.27L16.34 5.27L16.34 3.57ZM6.11 3L15.2 3L15.2 5.84C15.2 6.16 15.46 6.41 15.77 6.41L18.61 6.41L18.61 8.68L6.11 8.68L6.11 3ZM23.16 25.74L4.97 25.74L4.97 13.23L23.16 13.23L23.16 25.74ZM25.43 12.09L2.7 12.09L2.7 9.82L25.43 9.82L25.43 12.09Z" />
		</g>
	</g>
</svg>