<svg xmlns="http://www.w3.org/2000/svg" viewBox="0 0 28 23" width="28" height="23">
	<style>
		tspan { white-space:pre }
		.shp0 { opacity: 0.4;fill: #000000 } 
	</style>
	<g id="side menu">
		<g id="restaurant">
			<path id="restaurant" class="shp0" d="M10.09 14.04L6.68 14.04C6.36 14.04 6.11 14.3 6.11 14.61L6.11 18.02C6.11 18.34 6.36 18.59 6.68 18.59L10.09 18.59C10.4 18.59 10.65 18.34 10.65 18.02L10.65 14.61C10.65 14.3 10.4 14.04 10.09 14.04ZM9.52 17.45L7.24 17.45L7.24 15.18L9.52 15.18L9.52 17.45ZM21.45 14.04L18.04 14.04C17.73 14.04 17.48 14.3 17.48 14.61L17.48 18.02C17.48 18.34 17.73 18.59 18.04 18.59L21.45 18.59C21.77 18.59 22.02 18.34 22.02 18.02L22.02 14.61C22.02 14.3 21.77 14.04 21.45 14.04ZM20.89 17.45L18.61 17.45L18.61 15.18L20.89 15.18L20.89 17.45ZM26 20.86L25.43 20.86L25.43 6.08L26 6.08C26.32 6.08 26.57 5.83 26.57 5.52C26.57 5.2 26.32 4.95 26 4.95L25.43 4.95L25.43 2.67C25.43 2.05 24.92 1.54 24.3 1.54L3.83 1.54C3.21 1.54 2.7 2.05 2.7 2.67L2.7 4.95L2.13 4.95C1.81 4.95 1.56 5.2 1.56 5.52C1.56 5.83 1.81 6.08 2.13 6.08L2.7 6.08L2.7 20.86L2.13 20.86C1.81 20.86 1.56 21.12 1.56 21.43C1.56 21.75 1.81 22 2.13 22L26 22C26.32 22 26.57 21.75 26.57 21.43C26.57 21.12 26.32 20.86 26 20.86ZM15.2 20.86L12.93 20.86L12.93 15.18L15.2 15.18L15.2 20.86ZM24.3 20.86L16.34 20.86L16.34 14.61C16.34 14.3 16.08 14.04 15.77 14.04L12.36 14.04C12.05 14.04 11.79 14.3 11.79 14.61L11.79 20.86L3.83 20.86L3.83 8.71C4.25 9.19 4.86 9.49 5.54 9.49C6.22 9.49 6.83 9.19 7.24 8.71C7.66 9.19 8.27 9.49 8.95 9.49C9.63 9.49 10.24 9.19 10.65 8.71C11.07 9.19 11.68 9.49 12.36 9.49C13.04 9.49 13.65 9.19 14.07 8.71C14.48 9.19 15.09 9.49 15.77 9.49C16.45 9.49 17.06 9.19 17.48 8.71C17.89 9.19 18.5 9.49 19.18 9.49C19.86 9.49 20.47 9.19 20.89 8.71C21.3 9.19 21.91 9.49 22.59 9.49C23.27 9.49 23.88 9.19 24.3 8.71L24.3 20.86ZM4.4 7.22L4.4 6.08L6.68 6.08L6.68 7.22C6.68 7.85 6.17 8.36 5.54 8.36C4.91 8.36 4.4 7.85 4.4 7.22ZM7.81 7.22L7.81 6.08L10.09 6.08L10.09 7.22C10.09 7.85 9.58 8.36 8.95 8.36C8.32 8.36 7.81 7.85 7.81 7.22ZM11.22 7.22L11.22 6.08L13.5 6.08L13.5 7.22C13.5 7.85 12.99 8.36 12.36 8.36C11.73 8.36 11.22 7.85 11.22 7.22ZM14.63 7.22L14.63 6.08L16.91 6.08L16.91 7.22C16.91 7.85 16.4 8.36 15.77 8.36C15.14 8.36 14.63 7.85 14.63 7.22ZM18.04 7.22L18.04 6.08L20.32 6.08L20.32 7.22C20.32 7.85 19.81 8.36 19.18 8.36C18.55 8.36 18.04 7.85 18.04 7.22ZM21.45 7.22L21.45 6.08L23.73 6.08L23.73 7.22C23.73 7.85 23.22 8.36 22.59 8.36C21.96 8.36 21.45 7.85 21.45 7.22ZM24.3 4.95L3.83 4.95L3.83 2.67L24.3 2.67L24.3 4.95Z" />
		</g>
	</g>
</svg>